<svg width="242" height="49" viewBox="0 0 242 49" fill="none" xmlns="http://www.w3.org/2000/svg">
<g clip-path="url(#clip0_1_977)">
<path d="M57.0072 35.6096V10.9346H68.3822C71.0888 10.9346 73.1772 11.5063 74.6472 12.6496C76.1172 13.7929 76.8522 15.3563 76.8522 17.3396C76.8522 18.8096 76.4089 20.0579 75.5222 21.0846C74.6588 22.1113 73.4688 22.7996 71.9522 23.1496V22.5896C73.7255 22.8929 75.0905 23.5696 76.0472 24.6196C77.0272 25.6463 77.5172 26.9879 77.5172 28.6446C77.5172 30.8379 76.7355 32.5529 75.1722 33.7896C73.6322 35.0029 71.4972 35.6096 68.7672 35.6096H57.0072ZM62.2222 31.5496H68.1022C69.4555 31.5496 70.4939 31.2929 71.2172 30.7796C71.9405 30.2663 72.3022 29.4496 72.3022 28.3296C72.3022 27.1863 71.9405 26.3696 71.2172 25.8796C70.4939 25.3663 69.4555 25.1096 68.1022 25.1096H62.2222V31.5496ZM62.2222 21.0846H67.4022C68.8255 21.0846 69.8755 20.8279 70.5522 20.3146C71.2289 19.8013 71.5672 19.0313 71.5672 18.0046C71.5672 17.0013 71.2289 16.2429 70.5522 15.7296C69.8755 15.2163 68.8255 14.9596 67.4022 14.9596H62.2222V21.0846ZM81.0273 35.6096V9.84961H86.3123V35.6096H81.0273ZM97.0718 35.9946C94.8551 35.9946 93.2101 35.3879 92.1368 34.1746C91.0635 32.9379 90.5268 31.0713 90.5268 28.5746V17.8646H95.8118V28.5746C95.8118 29.6946 96.0335 30.5229 96.4768 31.0596C96.9435 31.5963 97.6551 31.8646 98.6118 31.8646C99.6618 31.8646 100.525 31.5029 101.202 30.7796C101.902 30.0329 102.252 29.0413 102.252 27.8046V17.8646H107.537V35.6096H102.392V32.2146H102.882C102.345 33.4046 101.575 34.3379 100.572 35.0146C99.5918 35.6679 98.4251 35.9946 97.0718 35.9946ZM120.817 35.9946C117.737 35.9946 115.333 35.1663 113.607 33.5096C111.88 31.8529 111.017 29.6013 111.017 26.7546C111.017 24.9113 111.378 23.3013 112.102 21.9246C112.848 20.5479 113.875 19.4746 115.182 18.7046C116.512 17.9113 118.063 17.5146 119.837 17.5146C121.587 17.5146 123.045 17.8879 124.212 18.6346C125.402 19.3813 126.288 20.4313 126.872 21.7846C127.478 23.1146 127.782 24.6663 127.782 26.4396V27.6646H115.357V25.0396H123.932L123.337 25.5296C123.337 24.0596 123.033 22.9513 122.427 22.2046C121.843 21.4346 120.992 21.0496 119.872 21.0496C118.635 21.0496 117.678 21.5046 117.002 22.4146C116.348 23.3246 116.022 24.6313 116.022 26.3346V26.8946C116.022 28.6213 116.442 29.9046 117.282 30.7446C118.145 31.5846 119.382 32.0046 120.992 32.0046C121.948 32.0046 122.847 31.8879 123.687 31.6546C124.55 31.3979 125.367 31.0013 126.137 30.4646L127.607 33.9646C126.72 34.6179 125.693 35.1196 124.527 35.4696C123.383 35.8196 122.147 35.9946 120.817 35.9946ZM143.42 35.9946C140.783 35.9946 138.52 35.4696 136.63 34.4196C134.74 33.3696 133.281 31.8996 132.255 30.0096C131.251 28.0963 130.75 25.8446 130.75 23.2546C130.75 20.6646 131.251 18.4246 132.255 16.5346C133.281 14.6446 134.74 13.1746 136.63 12.1246C138.52 11.0746 140.783 10.5496 143.42 10.5496C145.123 10.5496 146.675 10.7946 148.075 11.2846C149.475 11.7513 150.665 12.4396 151.645 13.3496L149.93 17.6546C148.856 16.8146 147.83 16.2196 146.85 15.8696C145.893 15.5196 144.808 15.3446 143.595 15.3446C141.285 15.3446 139.511 16.0329 138.275 17.4096C137.061 18.7629 136.455 20.7113 136.455 23.2546C136.455 25.7979 137.061 27.7579 138.275 29.1346C139.511 30.5113 141.285 31.1996 143.595 31.1996C144.808 31.1996 145.893 31.0246 146.85 30.6746C147.83 30.3246 148.856 29.7296 149.93 28.8896L151.645 33.1946C150.665 34.0813 149.475 34.7696 148.075 35.2596C146.675 35.7496 145.123 35.9946 143.42 35.9946ZM162.264 35.9946C160.374 35.9946 158.729 35.6213 157.329 34.8746C155.953 34.1046 154.879 33.0313 154.109 31.6546C153.363 30.2779 152.989 28.6329 152.989 26.7196C152.989 24.8296 153.363 23.1963 154.109 21.8196C154.879 20.4429 155.953 19.3813 157.329 18.6346C158.729 17.8879 160.374 17.5146 162.264 17.5146C164.154 17.5146 165.799 17.8879 167.199 18.6346C168.599 19.3813 169.673 20.4429 170.419 21.8196C171.189 23.1963 171.574 24.8296 171.574 26.7196C171.574 28.6329 171.189 30.2779 170.419 31.6546C169.673 33.0313 168.599 34.1046 167.199 34.8746C165.799 35.6213 164.154 35.9946 162.264 35.9946ZM162.264 32.0046C163.478 32.0046 164.434 31.5729 165.134 30.7096C165.858 29.8463 166.219 28.5163 166.219 26.7196C166.219 24.9229 165.858 23.6046 165.134 22.7646C164.434 21.9246 163.478 21.5046 162.264 21.5046C161.051 21.5046 160.083 21.9246 159.359 22.7646C158.659 23.6046 158.309 24.9229 158.309 26.7196C158.309 28.5163 158.659 29.8463 159.359 30.7096C160.083 31.5729 161.051 32.0046 162.264 32.0046ZM201.091 35.9946C199.551 35.9946 198.198 35.6213 197.031 34.8746C195.865 34.1279 194.955 33.0663 194.301 31.6896C193.648 30.3129 193.321 28.6563 193.321 26.7196C193.321 24.8063 193.648 23.1613 194.301 21.7846C194.955 20.4079 195.865 19.3579 197.031 18.6346C198.198 17.8879 199.551 17.5146 201.091 17.5146C202.515 17.5146 203.786 17.8646 204.906 18.5646C206.05 19.2413 206.796 20.1629 207.146 21.3296H206.761L207.181 17.8646H212.256C212.186 18.6346 212.116 19.4163 212.046 20.2096C212 20.9796 211.976 21.7379 211.976 22.4846V35.6096H206.726L206.691 32.2846H207.111C206.738 33.4046 205.991 34.3029 204.871 34.9796C203.751 35.6563 202.491 35.9946 201.091 35.9946ZM202.701 32.0046C203.915 32.0046 204.895 31.5729 205.641 30.7096C206.388 29.8463 206.761 28.5163 206.761 26.7196C206.761 24.9229 206.388 23.6046 205.641 22.7646C204.895 21.9246 203.915 21.5046 202.701 21.5046C201.488 21.5046 200.508 21.9246 199.761 22.7646C199.015 23.6046 198.641 24.9229 198.641 26.7196C198.641 28.5163 199.003 29.8463 199.726 30.7096C200.473 31.5729 201.465 32.0046 202.701 32.0046ZM216.276 35.6096V22.5546C216.276 21.7846 216.252 21.0029 216.206 20.2096C216.182 19.4163 216.124 18.6346 216.031 17.8646H221.106L221.701 23.0446H220.896C221.129 21.7846 221.502 20.7463 222.016 19.9296C222.552 19.1129 223.206 18.5063 223.976 18.1096C224.769 17.7129 225.667 17.5146 226.671 17.5146C227.114 17.5146 227.464 17.5379 227.721 17.5846C227.977 17.6079 228.234 17.6663 228.491 17.7596L228.456 22.4146C227.966 22.2046 227.546 22.0763 227.196 22.0296C226.869 21.9596 226.449 21.9246 225.936 21.9246C224.956 21.9246 224.139 22.1113 223.486 22.4846C222.856 22.8579 222.377 23.4063 222.051 24.1296C221.747 24.8529 221.596 25.7279 221.596 26.7546V35.6096H216.276Z" fill="white"/>
<path d="M174.987 35.6096V9.84961H180.272V35.6096H174.987ZM184.592 35.6096V9.84961H189.877V35.6096H184.592Z" fill="#FFB342"/>
<path d="M39.0644 29.7074H44V25.6094H29.733C29.4735 29.8615 25.9028 33.2354 21.5381 33.2354C17.1734 33.2354 13.6027 29.8615 13.3432 25.6094H-1.49006e-05L-1.52588e-05 29.7074H4.07406C4.29203 30.5496 4.57747 31.3764 4.92001 32.1878C5.30925 33.1019 5.77116 33.9749 6.30572 34.8017L2.74025 38.3297L8.35573 43.8862L11.9264 40.3531C12.7516 40.8718 13.6235 41.3237 14.5317 41.7037C15.5541 42.1299 16.6077 42.4637 17.682 42.6948V47.6094H25.6329V42.6537C26.645 42.4227 27.6362 42.1043 28.6015 41.7037C29.5773 41.298 30.5062 40.8101 31.3833 40.2453L34.8917 43.7168L40.5124 38.1551L36.9469 34.6271C37.4348 33.8517 37.8552 33.0352 38.2184 32.1878C38.561 31.3764 38.8464 30.5496 39.0644 29.7074Z" fill="white"/>
<path d="M36.9436 7.77991V16.0549C36.9436 16.6165 36.4796 17.0721 35.9078 17.0721H35.1741C34.6022 17.0721 34.1383 16.6165 34.1383 16.0549V5.62906C32.0127 4.24107 29.6282 3.20271 27.0711 2.60938V16.9661C27.0711 17.5277 26.6071 17.9833 26.0353 17.9833H17.9431C17.3712 17.9833 16.9073 17.5277 16.9073 16.9661V2.60938C14.3825 3.20271 11.998 4.25165 9.87248 5.62906V16.0549C9.87248 16.6165 9.40853 17.0721 8.83668 17.0721H8.10299C7.53114 17.0721 7.06718 16.6165 7.06718 16.0549V7.77991C2.72977 11.7214 0 17.3475 0 23.6094H44C44.0108 17.3475 41.2918 11.7214 36.9436 7.77991Z" fill="#FFB342"/>
<path d="M25 15.253C25 15.7265 24.653 16.1094 24.2164 16.1094H19.7836C19.3582 16.1094 19 15.7265 19 15.253V0.965798C19 0.492246 19.347 0.109375 19.7836 0.109375H24.2164C24.6418 0.109375 25 0.492246 25 0.965798V15.253Z" fill="#FFB342"/>
</g>
<defs>
<clipPath id="clip0_1_977">
<rect width="242" height="48" fill="white" transform="translate(0 0.109375)"/>
</clipPath>
</defs>
</svg>
