<svg width="22" height="28" viewBox="0 0 22 28" fill="none" xmlns="http://www.w3.org/2000/svg">
<g clip-path="url(#clip0_1_454)">
<path d="M18 11.5433V23.5399C18 23.8824 17.945 24.2215 17.8382 24.5379C17.7315 24.8543 17.5749 25.1418 17.3776 25.384C17.1803 25.6261 16.946 25.8183 16.6882 25.9492C16.4304 26.0803 16.1541 26.1478 15.875 26.1478H3.125C2.56141 26.1478 2.02091 25.873 1.6224 25.384C1.22388 24.8949 1 24.2316 1 23.5399V7.89213C1 7.20046 1.22388 6.53711 1.6224 6.04803C2.02091 5.55894 2.56141 5.28418 3.125 5.28418H12.0224" stroke="#FFB342" stroke-width="2" stroke-linecap="round" stroke-linejoin="round"/>
<path d="M21.7779 0.727351C21.698 0.619599 21.6011 0.532848 21.4931 0.472341C21.3851 0.411833 21.2682 0.378826 21.1496 0.375313C21.0309 0.371801 20.9128 0.397855 20.8026 0.451903C20.6923 0.505951 20.5921 0.58687 20.5081 0.68977L19.8316 1.5159C19.7496 1.61658 19.7036 1.75308 19.7036 1.89542C19.7036 2.03775 19.7496 2.17426 19.8316 2.27493L20.4518 3.03462C20.4924 3.08474 20.5407 3.12451 20.5939 3.15166C20.6472 3.17879 20.7042 3.19276 20.7618 3.19276C20.8195 3.19276 20.8765 3.17879 20.9297 3.15166C20.9829 3.12451 21.0313 3.08474 21.0719 3.03462L21.7314 2.22929C22.065 1.82059 22.0962 1.15485 21.7779 0.727351ZM18.4639 3.19368L8.59178 15.2871C8.53193 15.3602 8.48842 15.4511 8.46545 15.5508L8.00882 17.2198C7.99788 17.2651 7.9971 17.3132 8.00657 17.359C8.01605 17.4048 8.03541 17.4466 8.06263 17.48C8.08985 17.5134 8.12391 17.5372 8.16121 17.5487C8.19852 17.5604 8.23769 17.5594 8.2746 17.546L9.63357 16.9856C9.71486 16.9574 9.78888 16.904 9.84849 16.8306L19.7031 4.7144C19.7943 4.60132 19.8454 4.44867 19.8454 4.2896C19.8454 4.13052 19.7943 3.97787 19.7031 3.86479L19.159 3.19368C19.0667 3.08077 18.9417 3.01737 18.8114 3.01737C18.6811 3.01737 18.5562 3.08077 18.4639 3.19368Z" fill="#FFB342"/>
</g>
<defs>
<clipPath id="clip0_1_454">
<rect width="22" height="27" fill="white" transform="translate(0 0.375)"/>
</clipPath>
</defs>
</svg>
